<?xml version="1.0" standalone="no"?>
<!DOCTYPE svg PUBLIC "-//W3C//DTD SVG 20010904//EN"
 "http://www.w3.org/TR/2001/REC-SVG-20010904/DTD/svg10.dtd">
<svg version="1.0" xmlns="http://www.w3.org/2000/svg"
 width="48.000000pt" height="48.000000pt" viewBox="0 0 48.000000 48.000000"
 preserveAspectRatio="xMidYMid meet">

<g transform="translate(0.000000,48.000000) scale(0.100000,-0.100000)"
fill="#000000" stroke="none">
<path d="M170 378 c-48 -25 -90 -89 -90 -138 0 -49 42 -113 90 -137 56 -29 84
-29 140 0 48 24 90 88 90 137 0 49 -42 113 -90 138 -24 12 -56 22 -70 22 -14
0 -46 -10 -70 -22z m92 -15 c9 -10 19 -28 22 -40 7 -22 5 -23 -44 -23 -49 0
-51 1 -44 23 7 24 33 57 44 57 4 0 14 -8 22 -17z m-84 -31 c-9 -23 -19 -32
-35 -32 -13 0 -23 4 -23 9 0 10 61 64 66 58 2 -2 -2 -18 -8 -35z m160 5 c28
-26 28 -37 -2 -37 -14 0 -26 7 -29 18 -2 9 -8 26 -13 36 -9 22 6 16 44 -17z
m-173 -97 c0 -39 -1 -41 -30 -38 -23 2 -31 9 -33 26 -5 37 5 52 35 52 26 0 28
-3 28 -40z m135 0 l0 -40 -60 0 -60 0 0 40 0 40 60 0 60 0 0 -40z m75 0 c0
-32 -3 -35 -30 -38 -29 -3 -30 -1 -30 38 0 39 1 41 30 38 27 -3 30 -6 30 -38z
m-197 -92 c6 -17 10 -33 8 -35 -5 -6 -66 48 -66 58 0 5 10 9 23 9 16 0 26 -9
35 -32z m107 10 c-4 -13 -16 -32 -26 -43 -19 -19 -19 -19 -38 0 -10 11 -22 30
-26 43 -6 21 -4 22 45 22 49 0 51 -1 45 -22z m65 3 c-10 -20 -51 -53 -57 -48
-1 2 3 18 9 35 9 23 19 32 36 32 19 0 21 -3 12 -19z"/>
</g>
</svg>
